# xmcd
# 
# Track frame offsets:
#     150
#     10897
#     16857
#     27976
#     45899
#     54328
#     61740
#     74275
#     84979
#     92381
#     98255
#     105391
# 
# Disc length: 1521
# 
# Revision: 0
# Processed by: cddbd v1.5.2PL0 Copyright (c) Steve Scherf et al.
# Submitted via: fre:ac v1.0.17
# 
DISCID=7305ef0c
DTITLE=Buck Owens - From The Streets Of Bakersfield
DYEAR=1960
DGENRE=Country
TTITLE0=After The Dance
TTITLE1=Blue Love
TTITLE2=Down The Corner Of Love
TTITLE3=Leavin Dirty Tracks
TTITLE4=Honeysuckle
TTITLE5=Please Dont Take Her From Me
TTITLE6=House Down The Block
TTITLE7=It Dont Show On Me
TTITLE8=That Aint Right Woman
TTITLE9=Three Dimension Love
TTITLE10=Your For Me
TTITLE11=Why Dont Mommy Stay With Dad and Me
EXTD=
EXTT0=
EXTT1=
EXTT2=
EXTT3=
EXTT4=
EXTT5=
EXTT6=
EXTT7=
EXTT8=
EXTT9=
EXTT10=
EXTT11=
PLAYORDER=
